{
    "asset" : {
        "generator" : "Khronos glTF Blender I/O v1.6.16",
        "version" : "2.0"
    },
    "scene" : 0,
    "scenes" : [
        {
            "name" : "Scene",
            "nodes" : [
                0
            ]
        }
    ],
    "nodes" : [
        {
            "mesh" : 0,
            "name" : "Cube"
        }
    ],
    "materials" : [
        {
            "name" : "Material",
            "pbrMetallicRoughness" : {
                "baseColorFactor" : [
                    0.461360901594162,
                    0.4901743531227112,
                    0.5382247567176819,
                    1
                ],
                "metallicFactor" : 0.20105817914009094,
                "roughnessFactor" : 1
            }
        }
    ],
    "meshes" : [
        {
            "name" : "Cube",
            "primitives" : [
                {
                    "attributes" : {
                        "POSITION" : 0,
                        "NORMAL" : 1,
                        "TEXCOORD_0" : 2
                    },
                    "indices" : 3,
                    "material" : 0
                }
            ]
        }
    ],
    "accessors" : [
        {
            "bufferView" : 0,
            "componentType" : 5126,
            "count" : 1170,
            "max" : [
                11.453651428222656,
                3.1507716178894043,
                7.234489440917969
            ],
            "min" : [
                -5.901734352111816,
                -1.0137726068496704,
                -7.234489440917969
            ],
            "type" : "VEC3"
        },
        {
            "bufferView" : 1,
            "componentType" : 5126,
            "count" : 1170,
            "type" : "VEC3"
        },
        {
            "bufferView" : 2,
            "componentType" : 5126,
            "count" : 1170,
            "type" : "VEC2"
        },
        {
            "bufferView" : 3,
            "componentType" : 5123,
            "count" : 1824,
            "type" : "SCALAR"
        }
    ],
    "bufferViews" : [
        {
            "buffer" : 0,
            "byteLength" : 14040,
            "byteOffset" : 0
        },
        {
            "buffer" : 0,
            "byteLength" : 14040,
            "byteOffset" : 14040
        },
        {
            "buffer" : 0,
            "byteLength" : 9360,
            "byteOffset" : 28080
        },
        {
            "buffer" : 0,
            "byteLength" : 3648,
            "byteOffset" : 37440
        }
    ],
    "buffers" : [
        {
            "byteLength" : 41088,
            "uri" : "data:application/octet-stream;base64,"
        }
    ]
}
