{
    "asset" : {
        "generator" : "Khronos glTF Blender I/O v1.1.46",
        "version" : "2.0"
    },
    "scene" : 0,
    "scenes" : [
        {
            "name" : "Scene",
            "nodes" : [
                0
            ]
        }
    ],
    "nodes" : [
        {
            "mesh" : 0,
            "name" : "Cube",
            "scale" : [
                0.7854026556015015,
                0.7854026556015015,
                0.7854026556015015
            ]
        }
    ],
    "materials" : [
        {
            "name" : "Material",
            "pbrMetallicRoughness" : {}
        }
    ],
    "meshes" : [
        {
            "name" : "Cube",
            "primitives" : [
                {
                    "attributes" : {
                        "POSITION" : 0,
                        "NORMAL" : 1,
                        "TEXCOORD_0" : 2
                    },
                    "indices" : 3,
                    "material" : 0
                }
            ]
        }
    ],
    "accessors" : [
        {
            "bufferView" : 0,
            "componentType" : 5126,
            "count" : 1166,
            "max" : [
                6.555124282836914,
                1.803241491317749,
                4.1404242515563965
            ],
            "min" : [
                -3.3776652812957764,
                -0.5801997184753418,
                -4.1404242515563965
            ],
            "type" : "VEC3"
        },
        {
            "bufferView" : 1,
            "componentType" : 5126,
            "count" : 1166,
            "type" : "VEC3"
        },
        {
            "bufferView" : 2,
            "componentType" : 5126,
            "count" : 1166,
            "type" : "VEC2"
        },
        {
            "bufferView" : 3,
            "componentType" : 5123,
            "count" : 1824,
            "type" : "SCALAR"
        }
    ],
    "bufferViews" : [
        {
            "buffer" : 0,
            "byteLength" : 13992,
            "byteOffset" : 0
        },
        {
            "buffer" : 0,
            "byteLength" : 13992,
            "byteOffset" : 13992
        },
        {
            "buffer" : 0,
            "byteLength" : 9328,
            "byteOffset" : 27984
        },
        {
            "buffer" : 0,
            "byteLength" : 3648,
            "byteOffset" : 37312
        }
    ],
    "buffers" : [
        {
            "byteLength" : 40960,
            "uri" : "data:application/octet-stream;base64,"
        }
    ]
}
